# xmcd CD database file
#
# Track frame offsets:
#	150
#	9660
#	33490
#	53202
#	82215
#	114377
#	123662
#	140082
#	155365
#	172222
#	201460
#	217937
#	241670
#
# Disc length: 3524 seconds
#
# Revision: 0
# Processed by: cddbd v1.4PL0 Copyright (c) Steve Scherf et al.
# Submitted via: CDex 1.50Beta6
#
DISCID=bd0dc20d
DTITLE=Al Jarreau - Lean on me - Jazz Essentials
DYEAR=1900
DGENRE=Jazz
TTITLE0=Ain't no sunshine
TTITLE1=Letter perfect
TTITLE2=Lean on me
TTITLE3=Rainbow in your eyes
TTITLE4=We got by
TTITLE5=Grandma's hands
TTITLE6=Lonely town lonely street
TTITLE7=Same love that made me laugh
TTITLE8=Kissing my love
TTITLE9=One good turn
TTITLE10=Use me
TTITLE11=You
TTITLE12=Loving you
EXTD=
EXTT0=
EXTT1=
EXTT2=
EXTT3=
EXTT4=
EXTT5=
EXTT6=
EXTT7=
EXTT8=
EXTT9=
EXTT10=
EXTT11=
EXTT12=
PLAYORDER=
